<svg xmlns="http://www.w3.org/2000/svg" viewBox="-15 -25 45 45" role="img" data-species="cat" aria-label="Cocoa Cat">
<title>Cocoa Cat — original artwork by FanxingMeng1999 (MIT)</title>
<style>#body-js{transform-origin:7.5px 15px}.breathe{animation:breathe 3s ease-in-out infinite}.rest{animation:breathe 5s ease-in-out infinite}.celebrate{animation:bounce .7s ease-in-out infinite}.work{animation:breathe 1.7s ease-in-out infinite}.sway{animation:sway 1s ease-in-out infinite}.sparkle,.dream{animation:glow 1.6s ease-in-out infinite}.leaf{transform-origin:7.5px 3.7px;animation:sway 3s ease-in-out infinite}@keyframes breathe{50%{transform:translateY(-.25px) scaleY(1.012)}}@keyframes bounce{50%{transform:translateY(-1px) rotate(-2deg)}}@keyframes sway{50%{transform:rotate(3deg)}}@keyframes glow{50%{opacity:.4}}@media(prefers-reduced-motion:reduce){*{animation:none!important}}</style>
<ellipse id="shadow-js" cx="7.5" cy="16.5" rx="7.1" ry=".75" fill="#294b43" opacity=".12"/>
<g data-size-profile="legacy-pet-footprint" transform="translate(0 6.08) scale(1 .62)"><g id="body-js"><g class="celebrate">
<ellipse cx="4.1" cy="15.1" rx="1.35" ry=".8" fill="#926855"/><ellipse cx="10.9" cy="15.1" rx="1.35" ry=".8" fill="#926855"/>
<path d="M1 7 1.5 3l3.3 2.8q2.7-.9 5.4 0L13.5 3 14 7c1.2 4.3-.3 8.5-6.5 8.5S-.2 11.3 1 7Z" fill="#dbc0a5" stroke="#926855" stroke-width=".55"/><path d="M2.1 4.2 2.4 7 4 6.4zm10.8 0L12.6 7 11 6.4z" fill="#f6bc76"/>
<path d="M4.8 10.4 7.5 11.5l2.7-1.1M1.3 10l2.9.3m-2.8 1.1 2.5-.3m9.8-1.1-2.9.3m2.8 1.1-2.5-.3" fill="none" stroke="#926855" stroke-width=".4" stroke-linecap="round"/>
<g id="campfire-cocoa-mini-accent"><path d="M7.5 11.3l.45.9 1 .15-.72.7.17 1-.9-.48-.9.48.17-1-.72-.7 1-.15z" fill="#f6bc76"/></g>
<g id="eyes-js" fill="#254a44"><path d="M4.5 8v1.2m6-1.2v1.2" stroke="#254a44" stroke-width=".75" stroke-linecap="round"/><circle cx="4.5" cy="8" r=".15" fill="white"/><circle cx="10.5" cy="8" r=".15" fill="white"/></g><g id="eyes-doze" style="display:none"><path d="M3.3 9.1h2.4m4.2 0h2.4" stroke="#254a44" stroke-width=".7"/></g>
<ellipse cx="2.6" cy="10.7" rx=".9" ry=".38" fill="#ee9caa" opacity=".55"/><ellipse cx="12.4" cy="10.7" rx=".9" ry=".38" fill="#ee9caa" opacity=".55"/>
<g fill="none" stroke="#254a44" stroke-width=".5" stroke-linecap="round"><path d="M6.3 11.2q1.2 1.2 2.4 0"/></g>
<g class="sparkle" fill="#f6bc76"><path d="M1 2l.4 1.1 1.1.4-1.1.4L1 5l-.4-1.1-1.1-.4 1.1-.4zM14 1l.3.8.8.3-.8.3-.3.8-.3-.8-.8-.3.8-.3z"/></g>
</g></g></g></svg>