<svg xmlns="http://www.w3.org/2000/svg" viewBox="-15 -25 45 45" preserveAspectRatio="xMidYMid meet" role="img" data-species="sprout" data-art-version="3" aria-label="Sprout Buddy">
<title>Sprout Buddy — original artwork by FanxingMeng1999 (MIT)</title>
<defs>
<radialGradient id="paint-body" cx=".29" cy=".20" r=".84"><stop stop-color="#c9f0df"/><stop offset=".42" stop-color="#98e3c2"/><stop offset="1" stop-color="#6bbda1"/></radialGradient>
<linearGradient id="paint-trim" x1=".2" y1="0" x2=".8" y2="1"><stop stop-color="#7db6a9"/><stop offset="1" stop-color="#27856f"/></linearGradient>
<radialGradient id="paint-cream" cx=".30" cy=".18" r=".85"><stop stop-color="#ffffff"/><stop offset=".6" stop-color="#fff4e8"/><stop offset="1" stop-color="#e9d8c2"/></radialGradient>
<linearGradient id="paint-gold" x1="0" y1="0" x2="1" y2="1"><stop stop-color="#ffe6b3"/><stop offset=".45" stop-color="#ffd174"/><stop offset="1" stop-color="#e6b56d"/></linearGradient>
<linearGradient id="paint-screen" x1="0" y1="0" x2=".8" y2="1"><stop stop-color="#42615e"/><stop offset="1" stop-color="#263d3b"/></linearGradient>
</defs>
<style>#body-js{transform-origin:7.5px 16px}.idle-motion{animation:breathe 3.55s ease-in-out infinite}.working-motion{animation:focus 2.3s ease-in-out infinite}.happy-motion{animation:hop 1.35s cubic-bezier(.4,0,.2,1) infinite}.rest-motion{animation:rest 4.8s ease-in-out infinite}.reaction-motion{animation:greet 1.5s cubic-bezier(.4,0,.2,1) infinite}.crest{animation:crest 3.8s ease-in-out infinite}.tail{animation:tail 3.2s ease-in-out infinite}.claw-left{animation:claw-left 3.4s ease-in-out infinite}.claw-right{animation:claw-right 3.4s ease-in-out infinite}.happy-motion .claw-left{animation:wave-left 1.35s ease-in-out infinite}.happy-motion .claw-right{animation:wave-right 1.35s ease-in-out infinite}.happy-motion .limb-right{animation:wave-right 1.35s ease-in-out infinite}.working-motion .limb-left{animation:tap .62s ease-in-out infinite}.working-motion .limb-right{animation:tap .62s .31s ease-in-out infinite}.sparkles,.dream{animation:glow 1.8s ease-in-out infinite}.blink-open{animation:blink-open 4.6s linear infinite}.blink-lids{animation:blink-lids 4.6s linear infinite;opacity:0}.rest-motion .crest,.rest-motion .tail,.rest-motion .claw-left,.rest-motion .claw-right{animation-duration:5.8s}@keyframes breathe{0%,100%{transform:translateY(0) rotate(0)}42%{transform:translateY(-.46px) rotate(-.45deg)}58%{transform:translateY(-.54px) rotate(-.2deg)}}@keyframes focus{0%,100%{transform:translateY(0) rotate(0)}30%{transform:translateY(.1px) rotate(.2deg)}62%{transform:translateY(-.34px) rotate(.45deg)}82%{transform:translateY(-.08px) rotate(-.15deg)}}@keyframes rest{0%,100%{transform:translateY(0) rotate(0)}48%{transform:translateY(-.26px) rotate(-.18deg)}58%{transform:translateY(-.31px) rotate(-.1deg)}}@keyframes hop{0%,100%{transform:translateY(0) rotate(0)}32%{transform:translateY(-1.35px) rotate(-1.8deg)}43%{transform:translateY(-1.52px) rotate(-.8deg)}62%{transform:translateY(.1px) rotate(1.25deg)}76%{transform:translateY(-.14px) rotate(-.35deg)}}@keyframes greet{0%,100%{transform:translateY(0) rotate(0)}18%{transform:translateY(-.48px) rotate(-1deg)}34%{transform:translateY(-.82px) rotate(2.4deg)}55%{transform:translateY(-.24px) rotate(-.75deg)}74%{transform:translateY(.05px) rotate(.25deg)}}@keyframes crest{50%{transform:rotate(3.5deg)}}@keyframes tail{50%{transform:rotate(-6deg)}}@keyframes claw-left{50%{transform:rotate(-5deg)}}@keyframes claw-right{50%{transform:rotate(5deg)}}@keyframes wave-left{50%{transform:rotate(-24deg)}}@keyframes wave-right{50%{transform:rotate(24deg)}}@keyframes tap{50%{transform:translateY(.58px)}}@keyframes glow{50%{opacity:.42}}@keyframes blink-open{0%,93%,97%,100%{opacity:1}94%,96%{opacity:0}}@keyframes blink-lids{0%,93%,97%,100%{opacity:0}94%,96%{opacity:1}}@media(prefers-reduced-motion:reduce){*{animation:none!important}.blink-lids{display:none}}</style>
<ellipse id="shadow-js" cx="7.5" cy="16.5" rx="5.5" ry=".55" fill="#294b43" opacity=".09"/><ellipse cx="7.5" cy="16.5" rx="3.6" ry=".32" fill="#294b43" opacity=".07"/>
<g data-size-profile="compact-uniform" transform="translate(1.65 3.52) scale(.78)"><g id="body-js"><g class="reaction-motion" style="transform-origin:7.5px 16px">
<ellipse cx="5.15" cy="15.6" rx="1.05" ry=".6" fill="url(#paint-trim)"/><ellipse cx="9.85" cy="15.6" rx="1.05" ry=".6" fill="url(#paint-trim)"/><g class="limb-left" style="transform-origin:3px 10px"><ellipse cx="2.7" cy="11.1" rx=".75" ry="1.5" fill="url(#paint-body)"/></g><g class="limb-right" style="transform-origin:12px 10px"><ellipse cx="12.3" cy="11.1" rx=".75" ry="1.5" fill="url(#paint-body)"/></g>
<path d="M7.5 5C4.35 5 2.45 7.3 2.5 10.7c.05 3.65 2.05 5.15 5 5.15s4.95-1.5 5-5.15C12.55 7.3 10.65 5 7.5 5Z" fill="url(#paint-body)"/><ellipse cx="7.5" cy="12.6" rx="2.8" ry="1.9" fill="url(#paint-cream)" opacity=".28"/>
<g class="crest" style="transform-origin:7.5px 5px"><path d="M7.5 5.6V3.5" stroke="url(#paint-trim)" stroke-width=".5" stroke-linecap="round"/><path d="M7.5 4.4C5.3 4.6 3.45 3.6 3.3 1.9c2.35-.55 4.5.4 4.2 2.5Z" fill="url(#paint-trim)"/><path d="M7.6 3.8C7.25 1.3 9.6.6 11.6.85c.15 2.2-1.4 3.6-4 2.95Z" fill="url(#paint-trim)"/><path d="M4.2 2.55 7.4 4M8.05 3.25l2.55-1.55" fill="none" stroke="#ffffff" stroke-width=".14" opacity=".38"/></g><path d="M3.5 9.3C3.7 7.7 4.5 6.5 5.8 6.05" fill="none" stroke="#ffffff" stroke-width=".32" stroke-linecap="round" opacity=".42"/>
<g id="clawd-idle-accent"><path d="m7.5 12.7.28.55.6.09-.44.43.11.6-.55-.28-.55.28.11-.6-.44-.43.6-.09Z" fill="url(#paint-gold)"/></g>
<g id="eyes-js" fill="#283738"><g class="blink-open"><ellipse cx="5.3" cy="9.5" rx="0.43" ry="0.65"/><ellipse cx="9.7" cy="9.5" rx="0.43" ry="0.65"/><circle cx="5.21" cy="9.25" r=".13" fill="white"/><circle cx="9.61" cy="9.25" r=".13" fill="white"/></g><g class="blink-lids"><path d="M4.87 9.50q0.43 .40 0.86 0M9.27 9.50q0.43 .40 0.86 0" fill="none" stroke="#283738" stroke-width=".25" stroke-linecap="round"/></g></g><g id="eyes-doze" style="display:none"><path d="M4.87 9.50q0.43 .40 0.86 0M9.27 9.50q0.43 .40 0.86 0" fill="none" stroke="#283738" stroke-width=".25" stroke-linecap="round"/></g>
<ellipse cx="4.55" cy="10.85" rx=".60" ry=".32" fill="#ed94a7" opacity=".46"/><ellipse cx="10.45" cy="10.85" rx=".60" ry=".32" fill="#ed94a7" opacity=".46"/>
<path d="M6.9 11.35q.6 0.35 1.2 0" fill="none" stroke="#283738" stroke-width=".22" stroke-linecap="round"/>


</g></g></g></svg>