<svg xmlns="http://www.w3.org/2000/svg" viewBox="-15 -25 45 45" role="img" data-species="frog" aria-label="Matcha Frog">
<title>Matcha Frog — original artwork by FanxingMeng1999 (MIT)</title>
<style>#body-js{transform-origin:7.5px 15px}.breathe{animation:breathe 3s ease-in-out infinite}.rest{animation:breathe 5s ease-in-out infinite}.celebrate{animation:bounce .7s ease-in-out infinite}.work{animation:breathe 1.7s ease-in-out infinite}.sway{animation:sway 1s ease-in-out infinite}.sparkle,.dream{animation:glow 1.6s ease-in-out infinite}.leaf{transform-origin:7.5px 3.7px;animation:sway 3s ease-in-out infinite}@keyframes breathe{50%{transform:translateY(-.25px) scaleY(1.012)}}@keyframes bounce{50%{transform:translateY(-1px) rotate(-2deg)}}@keyframes sway{50%{transform:rotate(3deg)}}@keyframes glow{50%{opacity:.4}}@media(prefers-reduced-motion:reduce){*{animation:none!important}}</style>
<ellipse id="shadow-js" cx="7.5" cy="16.5" rx="7.1" ry=".75" fill="#294b43" opacity=".12"/>
<g data-size-profile="legacy-pet-footprint" transform="translate(0 6.08) scale(1 .62)"><g id="body-js"><g class="rest">
<ellipse cx="3.6" cy="15.2" rx="1.8" ry=".7" fill="#597b4c"/><ellipse cx="11.4" cy="15.2" rx="1.8" ry=".7" fill="#597b4c"/>
<path d="M1 8.4C1 5.8 3.2 5.1 7.5 5.1s6.5.7 6.5 3.3v3.1c0 2.7-2.1 4.2-6.5 4.2S1 14.2 1 11.5z" fill="#c3dc9c" stroke="#597b4c" stroke-width=".55"/><circle cx="4.3" cy="6.1" r="2" fill="#c3dc9c" stroke="#597b4c" stroke-width=".5"/><circle cx="10.7" cy="6.1" r="2" fill="#c3dc9c" stroke="#597b4c" stroke-width=".5"/><circle cx="7.5" cy="10.2" r=".42" fill="#f0c685"/><circle cx="4.7" cy="12.6" r=".28" fill="#f0c685" opacity=".55"/><circle cx="10.3" cy="12.6" r=".28" fill="#f0c685" opacity=".55"/>

<g id="matcha-lab-mini-accent"><path d="M7.5 11.3l.45.9 1 .15-.72.7.17 1-.9-.48-.9.48.17-1-.72-.7 1-.15z" fill="#f0c685"/></g>
<g id="eyes-js" fill="#254a44"><ellipse cx="4.3" cy="5.8" rx=".48" ry=".72"/><ellipse cx="10.7" cy="5.8" rx=".48" ry=".72"/></g><g id="eyes-doze" style="display:none"><path d="M3.3 9.1h2.4m4.2 0h2.4" stroke="#254a44" stroke-width=".7"/></g>
<ellipse cx="2.6" cy="10.7" rx=".9" ry=".38" fill="#ee9caa" opacity=".55"/><ellipse cx="12.4" cy="10.7" rx=".9" ry=".38" fill="#ee9caa" opacity=".55"/>
<g fill="none" stroke="#254a44" stroke-width=".5" stroke-linecap="round"><path d="M6.6 11.2q.9.55 1.8 0"/></g>
<text x="13.5" y="3" font-family="sans-serif" font-size="2.4" fill="#597b4c" class="dream">z</text>
</g></g></g></svg>