<svg xmlns="http://www.w3.org/2000/svg" viewBox="-15 -25 45 45" role="img" data-species="fox" aria-label="Soda Fox">
<title>Soda Fox — original artwork by FanxingMeng1999 (MIT)</title>
<style>#body-js{transform-origin:7.5px 15px}.breathe{animation:breathe 3s ease-in-out infinite}.rest{animation:breathe 5s ease-in-out infinite}.celebrate{animation:bounce .7s ease-in-out infinite}.work{animation:breathe 1.7s ease-in-out infinite}.sway{animation:sway 1s ease-in-out infinite}.sparkle,.dream{animation:glow 1.6s ease-in-out infinite}.leaf{transform-origin:7.5px 3.7px;animation:sway 3s ease-in-out infinite}@keyframes breathe{50%{transform:translateY(-.25px) scaleY(1.012)}}@keyframes bounce{50%{transform:translateY(-1px) rotate(-2deg)}}@keyframes sway{50%{transform:rotate(3deg)}}@keyframes glow{50%{opacity:.4}}@media(prefers-reduced-motion:reduce){*{animation:none!important}}</style>
<ellipse id="shadow-js" cx="7.5" cy="16.5" rx="7.1" ry=".75" fill="#294b43" opacity=".12"/>
<g data-size-profile="legacy-pet-footprint" transform="translate(0 6.08) scale(1 .62)"><g id="body-js"><g class="celebrate">
<path d="M12.3 13.2q3.1.3 2.2-2.7-.5-1.2-2.2-.8" fill="none" stroke="#c17265" stroke-width="1.1" stroke-linecap="round"/><path d="M4 15.1v.7m7-.7v.7" stroke="#c17265" stroke-width=".9"/>
<path d="M1.1 7 2 3.2l3.1 2.8q2.4-.8 4.8 0L13 3.2l.9 3.8q.7 1.6.4 4.3-.4 4.1-6.8 4.1T.7 11.3q-.3-2.7.4-4.3Z" fill="#f9c296" stroke="#c17265" stroke-width=".55"/><path d="M1.9 4.1 2.4 7l1.9-.7zM13.1 4.1 12.6 7l-1.9-.7z" fill="#a6dbcd"/><path d="M2.5 11q1.2-2.4 5-1.6 3.8-.8 5 1.6-.8 3.4-5 3.4t-5-3.4Z" fill="#fff2da"/>
<path d="M6.9 10.1q.6.5 1.2 0" fill="none" stroke="#c17265" stroke-width=".55"/>
<g id="sunset-soda-idle-accent"><path d="M7.5 11.3l.45.9 1 .15-.72.7.17 1-.9-.48-.9.48.17-1-.72-.7 1-.15z" fill="#a6dbcd"/></g>
<g id="eyes-js" fill="#254a44"><ellipse cx="4.6" cy="8.2" rx=".55" ry=".72"/><ellipse cx="10.4" cy="8.2" rx=".55" ry=".72"/></g><g id="eyes-doze" style="display:none"><path d="M3.3 9.1h2.4m4.2 0h2.4" stroke="#254a44" stroke-width=".7"/></g>
<ellipse cx="2.6" cy="10.7" rx=".9" ry=".38" fill="#ee9caa" opacity=".55"/><ellipse cx="12.4" cy="10.7" rx=".9" ry=".38" fill="#ee9caa" opacity=".55"/>
<g fill="none" stroke="#254a44" stroke-width=".5" stroke-linecap="round"><path d="M6.3 11.2q1.2 1.2 2.4 0"/></g>
<g class="sparkle" fill="#a6dbcd"><path d="M1 2l.4 1.1 1.1.4-1.1.4L1 5l-.4-1.1-1.1-.4 1.1-.4zM14 1l.3.8.8.3-.8.3-.3.8-.3-.8-.8-.3.8-.3z"/></g>
</g></g></g></svg>